<svg xmlns="http://www.w3.org/2000/svg" xmlns:xlink="http://www.w3.org/1999/xlink" width="512" zoomAndPan="magnify" viewBox="0 0 384 383.999986" height="512" preserveAspectRatio="xMidYMid meet" version="1.2"><defs/><g id="8d126af891"><g style="fill:#000000;fill-opacity:1;"><g transform="translate(153.671028, 312.057129)"><path style="stroke:none" d="M 224.328125 32.40625 C 216.171875 37.925781 208.066406 42.484375 200.015625 46.078125 C 191.972656 49.679688 182.796875 51.484375 172.484375 51.484375 C 164.554688 51.484375 157.171875 50.222656 150.328125 47.703125 C 143.492188 45.179688 136.832031 42 130.34375 38.15625 C 123.863281 34.320312 117.441406 30.179688 111.078125 25.734375 C 104.722656 21.296875 98.125 17.15625 91.28125 13.3125 C 84.4375 9.476562 77.050781 6.300781 69.125 3.78125 C 61.207031 1.257812 52.566406 0 43.203125 0 L 11.875 0 C 17.40625 -1.195312 21.066406 -4.132812 22.859375 -8.8125 C 24.660156 -13.5 25.5625 -18.242188 25.5625 -23.046875 L 25.5625 -154.828125 C 25.5625 -159.628906 24.597656 -164.128906 22.671875 -168.328125 C 20.753906 -172.535156 17.15625 -175.238281 11.875 -176.4375 L 60.140625 -176.4375 C 55.097656 -175.238281 51.613281 -172.535156 49.6875 -168.328125 C 47.769531 -164.128906 46.8125 -159.628906 46.8125 -154.828125 L 46.8125 -3.234375 C 59.050781 -2.753906 70.929688 -0.296875 82.453125 4.140625 C 93.972656 8.578125 105.316406 13.4375 116.484375 18.71875 C 127.648438 24 138.929688 28.738281 150.328125 32.9375 C 161.734375 37.144531 173.4375 39.25 185.4375 39.25 C 192.394531 39.25 198.875 38.585938 204.875 37.265625 C 210.882812 35.941406 217.007812 33.722656 223.25 30.609375 Z M 224.328125 32.40625 "/></g></g><g style="fill:#000000;fill-opacity:1;"><g transform="translate(10.547019, 193.354272)"><path style="stroke:none" d="M 168.875 -12.25 C 168.875 -0.238281 166.953125 10.679688 163.109375 20.515625 C 159.273438 30.359375 153.816406 38.757812 146.734375 45.71875 C 139.648438 52.6875 131.1875 58.085938 121.34375 61.921875 C 111.5 65.765625 100.578125 67.6875 88.578125 67.6875 C 77.773438 67.6875 67.453125 66.003906 57.609375 62.640625 C 47.765625 59.285156 39.125 54.425781 31.6875 48.0625 C 24.25 41.707031 18.304688 33.96875 13.859375 24.84375 C 9.421875 15.71875 7.203125 5.394531 7.203125 -6.125 C 7.203125 -17.164062 9.117188 -26.644531 12.953125 -34.5625 C 16.796875 -42.488281 22.019531 -49.03125 28.625 -54.1875 C 35.226562 -59.351562 42.96875 -63.195312 51.84375 -65.71875 C 60.726562 -68.238281 70.210938 -69.5 80.296875 -69.5 L 80.296875 -68.0625 C 71.648438 -67.570312 63.664062 -65.46875 56.34375 -61.75 C 49.03125 -58.03125 42.789062 -53.171875 37.625 -47.171875 C 32.46875 -41.171875 28.445312 -34.328125 25.5625 -26.640625 C 22.6875 -18.960938 21.25 -10.800781 21.25 -2.15625 C 21.25 7.6875 22.867188 16.628906 26.109375 24.671875 C 29.347656 32.710938 33.847656 39.613281 39.609375 45.375 C 45.367188 51.132812 52.328125 55.570312 60.484375 58.6875 C 68.648438 61.8125 77.65625 63.375 87.5 63.375 C 106.945312 63.375 122.128906 57.671875 133.046875 46.265625 C 143.972656 34.867188 149.4375 19.445312 149.4375 0 C 149.4375 -10.320312 147.09375 -19.742188 142.40625 -28.265625 C 137.726562 -36.785156 131.847656 -44.828125 124.765625 -52.390625 C 117.679688 -59.953125 110 -67.210938 101.71875 -74.171875 C 93.4375 -81.140625 85.753906 -88.101562 78.671875 -95.0625 C 71.597656 -102.019531 65.71875 -109.21875 61.03125 -116.65625 C 56.351562 -124.101562 54.015625 -132.148438 54.015625 -140.796875 C 54.015625 -147.035156 55.15625 -152.675781 57.4375 -157.71875 C 59.71875 -162.757812 62.835938 -166.957031 66.796875 -170.3125 C 70.753906 -173.675781 75.375 -176.257812 80.65625 -178.0625 C 85.9375 -179.863281 91.578125 -180.765625 97.578125 -180.765625 C 99.984375 -180.765625 102.320312 -180.519531 104.59375 -180.03125 C 106.875 -179.550781 109.097656 -179.070312 111.265625 -178.59375 L 120.265625 -175.71875 C 125.066406 -174.28125 129.628906 -173.5625 133.953125 -173.5625 C 137.304688 -173.5625 139.945312 -174.878906 141.875 -177.515625 L 139.34375 -135.75 C 138.382812 -140.550781 136.703125 -145.472656 134.296875 -150.515625 C 131.898438 -155.554688 128.84375 -160.113281 125.125 -164.1875 C 121.40625 -168.269531 117.203125 -171.691406 112.515625 -174.453125 C 107.835938 -177.210938 102.738281 -178.59375 97.21875 -178.59375 C 88.332031 -178.59375 80.707031 -176.191406 74.34375 -171.390625 C 67.988281 -166.597656 64.8125 -159.398438 64.8125 -149.796875 C 64.8125 -142.347656 67.390625 -135.203125 72.546875 -128.359375 C 77.710938 -121.523438 84.132812 -114.804688 91.8125 -108.203125 C 99.5 -101.597656 107.84375 -94.875 116.84375 -88.03125 C 125.84375 -81.195312 134.179688 -73.9375 141.859375 -66.25 C 149.546875 -58.570312 155.96875 -50.289062 161.125 -41.40625 C 166.289062 -32.53125 168.875 -22.8125 168.875 -12.25 Z M 168.875 -12.25 "/></g></g></g></svg>