<svg xmlns="http://www.w3.org/2000/svg" xmlns:xlink="http://www.w3.org/1999/xlink" width="512" zoomAndPan="magnify" viewBox="0 0 384 383.999986" height="512" preserveAspectRatio="xMidYMid meet" version="1.2"><defs/><g id="6ac757bacf"><g style="fill:#000000;fill-opacity:1;"><g transform="translate(143.2658, 316.294752)"><path style="stroke:none" d="M 199.78125 28.859375 C 192.519531 33.773438 185.304688 37.835938 178.140625 41.046875 C 170.984375 44.253906 162.804688 45.859375 153.609375 45.859375 C 146.554688 45.859375 139.984375 44.734375 133.890625 42.484375 C 127.796875 40.242188 121.863281 37.410156 116.09375 33.984375 C 110.320312 30.566406 104.601562 26.878906 98.9375 22.921875 C 93.269531 18.972656 87.390625 15.285156 81.296875 11.859375 C 75.203125 8.441406 68.625 5.609375 61.5625 3.359375 C 54.507812 1.117188 46.816406 0 38.484375 0 L 10.578125 0 C 15.492188 -1.070312 18.753906 -3.691406 20.359375 -7.859375 C 21.960938 -12.023438 22.765625 -16.25 22.765625 -20.53125 L 22.765625 -137.890625 C 22.765625 -142.171875 21.910156 -146.179688 20.203125 -149.921875 C 18.492188 -153.660156 15.285156 -156.066406 10.578125 -157.140625 L 53.5625 -157.140625 C 49.070312 -156.066406 45.96875 -153.660156 44.25 -149.921875 C 42.539062 -146.179688 41.6875 -142.171875 41.6875 -137.890625 L 41.6875 -2.890625 C 52.59375 -2.460938 63.175781 -0.269531 73.4375 3.6875 C 83.695312 7.644531 93.796875 11.972656 103.734375 16.671875 C 113.679688 21.378906 123.734375 25.601562 133.890625 29.34375 C 144.046875 33.082031 154.46875 34.953125 165.15625 34.953125 C 171.351562 34.953125 177.125 34.363281 182.46875 33.1875 C 187.8125 32.007812 193.265625 30.035156 198.828125 27.265625 Z M 199.78125 28.859375 "/></g></g><g style="fill:#000000;fill-opacity:1;"><g transform="translate(15.800486, 210.578769)"><path style="stroke:none" d="M 150.40625 -10.90625 C 150.40625 -0.21875 148.691406 9.503906 145.265625 18.265625 C 141.847656 27.035156 136.984375 34.519531 130.671875 40.71875 C 124.367188 46.925781 116.832031 51.738281 108.0625 55.15625 C 99.300781 58.582031 89.578125 60.296875 78.890625 60.296875 C 69.265625 60.296875 60.066406 58.796875 51.296875 55.796875 C 42.535156 52.804688 34.84375 48.476562 28.21875 42.8125 C 21.59375 37.144531 16.300781 30.25 12.34375 22.125 C 8.382812 14 6.40625 4.804688 6.40625 -5.453125 C 6.40625 -15.285156 8.113281 -23.726562 11.53125 -30.78125 C 14.957031 -37.84375 19.609375 -43.671875 25.484375 -48.265625 C 31.367188 -52.859375 38.265625 -56.273438 46.171875 -58.515625 C 54.085938 -60.765625 62.535156 -61.890625 71.515625 -61.890625 L 71.515625 -60.609375 C 63.816406 -60.179688 56.707031 -58.3125 50.1875 -55 C 43.664062 -51.6875 38.101562 -47.359375 33.5 -42.015625 C 28.90625 -36.671875 25.328125 -30.578125 22.765625 -23.734375 C 20.203125 -16.890625 18.921875 -9.617188 18.921875 -1.921875 C 18.921875 6.835938 20.363281 14.796875 23.25 21.953125 C 26.132812 29.117188 30.140625 35.269531 35.265625 40.40625 C 40.398438 45.539062 46.601562 49.492188 53.875 52.265625 C 61.144531 55.046875 69.160156 56.4375 77.921875 56.4375 C 95.242188 56.4375 108.765625 51.359375 118.484375 41.203125 C 128.210938 31.046875 133.078125 17.3125 133.078125 0 C 133.078125 -9.195312 130.992188 -17.585938 126.828125 -25.171875 C 122.660156 -32.765625 117.421875 -39.925781 111.109375 -46.65625 C 104.804688 -53.394531 97.96875 -59.863281 90.59375 -66.0625 C 83.21875 -72.257812 76.375 -78.457031 70.0625 -84.65625 C 63.757812 -90.863281 58.523438 -97.28125 54.359375 -103.90625 C 50.191406 -110.53125 48.109375 -117.691406 48.109375 -125.390625 C 48.109375 -130.953125 49.125 -135.976562 51.15625 -140.46875 C 53.1875 -144.957031 55.960938 -148.695312 59.484375 -151.6875 C 63.015625 -154.675781 67.128906 -156.972656 71.828125 -158.578125 C 76.535156 -160.179688 81.5625 -160.984375 86.90625 -160.984375 C 89.039062 -160.984375 91.125 -160.769531 93.15625 -160.34375 C 95.1875 -159.914062 97.164062 -159.488281 99.09375 -159.0625 L 107.109375 -156.5 C 111.378906 -155.21875 115.441406 -154.578125 119.296875 -154.578125 C 122.285156 -154.578125 124.632812 -155.75 126.34375 -158.09375 L 124.109375 -120.90625 C 123.253906 -125.175781 121.753906 -129.554688 119.609375 -134.046875 C 117.472656 -138.535156 114.75 -142.597656 111.4375 -146.234375 C 108.125 -149.867188 104.382812 -152.914062 100.21875 -155.375 C 96.050781 -157.832031 91.503906 -159.0625 86.578125 -159.0625 C 78.671875 -159.0625 71.882812 -156.921875 66.21875 -152.640625 C 60.550781 -148.367188 57.71875 -141.957031 57.71875 -133.40625 C 57.71875 -126.78125 60.015625 -120.421875 64.609375 -114.328125 C 69.210938 -108.234375 74.929688 -102.242188 81.765625 -96.359375 C 88.609375 -90.484375 96.039062 -84.5 104.0625 -78.40625 C 112.082031 -72.3125 119.507812 -65.84375 126.34375 -59 C 133.1875 -52.164062 138.90625 -44.789062 143.5 -36.875 C 148.101562 -28.96875 150.40625 -20.3125 150.40625 -10.90625 Z M 150.40625 -10.90625 "/></g></g><g style="fill:#000000;fill-opacity:1;"><g transform="translate(150.33061, 72.798499)"><path style="stroke:none" d="M 7.734375 0.203125 C 6.367188 0.203125 5.203125 -0.078125 4.234375 -0.640625 C 3.265625 -1.203125 2.535156 -1.929688 2.046875 -2.828125 C 1.554688 -3.722656 1.3125 -4.660156 1.3125 -5.640625 L 1.3125 -5.765625 L 3.71875 -5.765625 L 3.71875 -5.640625 C 3.71875 -5.046875 3.851562 -4.453125 4.125 -3.859375 C 4.40625 -3.273438 4.847656 -2.785156 5.453125 -2.390625 C 6.066406 -1.992188 6.84375 -1.796875 7.78125 -1.796875 C 8.894531 -1.796875 9.8125 -2.082031 10.53125 -2.65625 C 11.257812 -3.226562 11.625 -4.003906 11.625 -4.984375 C 11.625 -5.785156 11.359375 -6.425781 10.828125 -6.90625 C 10.296875 -7.394531 9.617188 -7.722656 8.796875 -7.890625 L 6.21875 -8.375 C 3.25 -9.03125 1.765625 -10.585938 1.765625 -13.046875 C 1.765625 -14.054688 2.007812 -14.941406 2.5 -15.703125 C 2.988281 -16.460938 3.664062 -17.046875 4.53125 -17.453125 C 5.40625 -17.867188 6.414062 -18.078125 7.5625 -18.078125 C 8.851562 -18.078125 9.960938 -17.816406 10.890625 -17.296875 C 11.816406 -16.773438 12.515625 -16.09375 12.984375 -15.25 C 13.460938 -14.414062 13.703125 -13.554688 13.703125 -12.671875 L 13.703125 -12.5625 L 11.296875 -12.5625 L 11.296875 -12.640625 C 11.296875 -13.148438 11.171875 -13.664062 10.921875 -14.1875 C 10.679688 -14.71875 10.28125 -15.175781 9.71875 -15.5625 C 9.15625 -15.957031 8.410156 -16.15625 7.484375 -16.15625 C 6.421875 -16.15625 5.570312 -15.859375 4.9375 -15.265625 C 4.3125 -14.679688 4 -13.953125 4 -13.078125 C 4 -12.328125 4.238281 -11.71875 4.71875 -11.25 C 5.207031 -10.78125 5.875 -10.460938 6.71875 -10.296875 L 9.046875 -9.828125 C 12.304688 -9.171875 13.9375 -7.582031 13.9375 -5.0625 C 13.9375 -4.03125 13.675781 -3.117188 13.15625 -2.328125 C 12.644531 -1.535156 11.914062 -0.914062 10.96875 -0.46875 C 10.03125 -0.0195312 8.953125 0.203125 7.734375 0.203125 Z M 7.734375 0.203125 "/></g></g><g style="fill:#000000;fill-opacity:1;"><g transform="translate(175.782342, 72.798499)"><path style="stroke:none" d="M 12.203125 -5.15625 L 5 -5.15625 L 3.140625 0 L 0.90625 0 L 7.5625 -17.703125 L 9.625 -17.703125 L 16.328125 0 L 14.109375 0 Z M 11.578125 -6.90625 L 8.625 -14.921875 L 8.515625 -14.921875 L 5.640625 -6.90625 Z M 11.578125 -6.90625 "/></g></g><g style="fill:#000000;fill-opacity:1;"><g transform="translate(203.281358, 72.798499)"><path style="stroke:none" d="M 1.890625 -17.703125 L 8.375 -17.703125 C 9.957031 -17.703125 11.34375 -17.34375 12.53125 -16.625 C 13.71875 -15.90625 14.632812 -14.882812 15.28125 -13.5625 C 15.925781 -12.238281 16.25 -10.675781 16.25 -8.875 C 16.25 -7.070312 15.925781 -5.5 15.28125 -4.15625 C 14.632812 -2.820312 13.710938 -1.796875 12.515625 -1.078125 C 11.316406 -0.359375 9.925781 0 8.34375 0 L 1.890625 0 Z M 8.046875 -2.015625 C 9.828125 -2.015625 11.253906 -2.597656 12.328125 -3.765625 C 13.410156 -4.941406 13.953125 -6.644531 13.953125 -8.875 C 13.953125 -11.09375 13.414062 -12.785156 12.34375 -13.953125 C 11.28125 -15.128906 9.847656 -15.71875 8.046875 -15.71875 L 4.015625 -15.71875 L 4.015625 -2.015625 Z M 8.046875 -2.015625 "/></g></g><g style="fill:#000000;fill-opacity:1;"><g transform="translate(230.957296, 72.798499)"><path style="stroke:none" d="M 7.234375 -7.046875 L 4.0625 -7.046875 L 4.0625 0 L 1.890625 0 L 1.890625 -17.703125 L 7.90625 -17.703125 C 9.34375 -17.703125 10.519531 -17.4375 11.4375 -16.90625 C 12.351562 -16.382812 13.015625 -15.71875 13.421875 -14.90625 C 13.828125 -14.101562 14.03125 -13.253906 14.03125 -12.359375 C 14.03125 -11.128906 13.660156 -10.023438 12.921875 -9.046875 C 12.191406 -8.066406 11.050781 -7.445312 9.5 -7.1875 L 14.1875 0 L 11.78125 0 Z M 4.0625 -8.921875 L 7.640625 -8.921875 C 8.835938 -8.921875 9.847656 -9.179688 10.671875 -9.703125 C 11.492188 -10.222656 11.90625 -11.109375 11.90625 -12.359375 C 11.90625 -13.585938 11.492188 -14.453125 10.671875 -14.953125 C 9.847656 -15.460938 8.835938 -15.71875 7.640625 -15.71875 L 4.0625 -15.71875 Z M 4.0625 -8.921875 "/></g></g><g style="fill:#000000;fill-opacity:1;"><g transform="translate(256.560689, 72.798499)"><path style="stroke:none" d="M 12.203125 -5.15625 L 5 -5.15625 L 3.140625 0 L 0.90625 0 L 7.5625 -17.703125 L 9.625 -17.703125 L 16.328125 0 L 14.109375 0 Z M 11.578125 -6.90625 L 8.625 -14.921875 L 8.515625 -14.921875 L 5.640625 -6.90625 Z M 11.578125 -6.90625 "/></g></g><g style="fill:#000000;fill-opacity:1;"><g transform="translate(150.33061, 106.498117)"><path style="stroke:none" d="M 1.890625 -17.703125 L 5.109375 -17.703125 L 10.359375 -4.140625 L 10.4375 -4.140625 L 15.703125 -17.703125 L 18.90625 -17.703125 L 18.90625 0 L 16.765625 0 L 16.765625 -14.328125 L 16.65625 -14.328125 L 11.171875 0 L 9.609375 0 L 4.140625 -14.328125 L 4.046875 -14.328125 L 4.046875 0 L 1.890625 0 Z M 1.890625 -17.703125 "/></g></g><g style="fill:#000000;fill-opacity:1;"><g transform="translate(181.443917, 106.498117)"><path style="stroke:none" d="M 12.203125 -5.15625 L 5 -5.15625 L 3.140625 0 L 0.90625 0 L 7.5625 -17.703125 L 9.625 -17.703125 L 16.328125 0 L 14.109375 0 Z M 11.578125 -6.90625 L 8.625 -14.921875 L 8.515625 -14.921875 L 5.640625 -6.90625 Z M 11.578125 -6.90625 "/></g></g><g style="fill:#000000;fill-opacity:1;"><g transform="translate(208.942933, 106.498117)"><path style="stroke:none" d="M 1.890625 -17.703125 L 8.375 -17.703125 C 9.957031 -17.703125 11.34375 -17.34375 12.53125 -16.625 C 13.71875 -15.90625 14.632812 -14.882812 15.28125 -13.5625 C 15.925781 -12.238281 16.25 -10.675781 16.25 -8.875 C 16.25 -7.070312 15.925781 -5.5 15.28125 -4.15625 C 14.632812 -2.820312 13.710938 -1.796875 12.515625 -1.078125 C 11.316406 -0.359375 9.925781 0 8.34375 0 L 1.890625 0 Z M 8.046875 -2.015625 C 9.828125 -2.015625 11.253906 -2.597656 12.328125 -3.765625 C 13.410156 -4.941406 13.953125 -6.644531 13.953125 -8.875 C 13.953125 -11.09375 13.414062 -12.785156 12.34375 -13.953125 C 11.28125 -15.128906 9.847656 -15.71875 8.046875 -15.71875 L 4.015625 -15.71875 L 4.015625 -2.015625 Z M 8.046875 -2.015625 "/></g></g><g style="fill:#000000;fill-opacity:1;"><g transform="translate(236.618871, 106.498117)"><path style="stroke:none" d="M 9.296875 0.171875 C 7.617188 0.171875 6.175781 -0.210938 4.96875 -0.984375 C 3.757812 -1.765625 2.84375 -2.84375 2.21875 -4.21875 C 1.601562 -5.601562 1.296875 -7.171875 1.296875 -8.921875 C 1.296875 -10.671875 1.609375 -12.238281 2.234375 -13.625 C 2.867188 -15.019531 3.785156 -16.109375 4.984375 -16.890625 C 6.191406 -17.679688 7.628906 -18.078125 9.296875 -18.078125 C 10.953125 -18.078125 12.378906 -17.679688 13.578125 -16.890625 C 14.773438 -16.109375 15.679688 -15.023438 16.296875 -13.640625 C 16.921875 -12.265625 17.234375 -10.6875 17.234375 -8.90625 C 17.234375 -7.132812 16.921875 -5.566406 16.296875 -4.203125 C 15.679688 -2.835938 14.773438 -1.765625 13.578125 -0.984375 C 12.378906 -0.210938 10.953125 0.171875 9.296875 0.171875 Z M 9.28125 -1.84375 C 10.4375 -1.84375 11.441406 -2.140625 12.296875 -2.734375 C 13.160156 -3.335938 13.820312 -4.175781 14.28125 -5.25 C 14.738281 -6.332031 14.96875 -7.566406 14.96875 -8.953125 C 14.96875 -10.328125 14.738281 -11.554688 14.28125 -12.640625 C 13.820312 -13.722656 13.160156 -14.566406 12.296875 -15.171875 C 11.441406 -15.773438 10.4375 -16.078125 9.28125 -16.078125 C 8.113281 -16.078125 7.097656 -15.769531 6.234375 -15.15625 C 5.378906 -14.539062 4.722656 -13.691406 4.265625 -12.609375 C 3.816406 -11.535156 3.59375 -10.316406 3.59375 -8.953125 C 3.59375 -7.566406 3.816406 -6.335938 4.265625 -5.265625 C 4.722656 -4.203125 5.378906 -3.363281 6.234375 -2.75 C 7.097656 -2.144531 8.113281 -1.84375 9.28125 -1.84375 Z M 9.28125 -1.84375 "/></g></g><g style="fill:#000000;fill-opacity:1;"><g transform="translate(265.508004, 106.498117)"><path style="stroke:none" d="M 1.890625 -17.703125 L 4.34375 -17.703125 L 13.828125 -3.484375 L 13.9375 -3.484375 L 13.9375 -17.703125 L 16.078125 -17.703125 L 16.078125 0 L 13.59375 0 L 4.140625 -14 L 4.046875 -14 L 4.046875 0 L 1.890625 0 Z M 1.890625 -17.703125 "/></g></g><g style="fill:#000000;fill-opacity:1;"><g transform="translate(293.790524, 106.498117)"><path style="stroke:none" d="M 1.890625 -17.703125 L 4.34375 -17.703125 L 13.828125 -3.484375 L 13.9375 -3.484375 L 13.9375 -17.703125 L 16.078125 -17.703125 L 16.078125 0 L 13.59375 0 L 4.140625 -14 L 4.046875 -14 L 4.046875 0 L 1.890625 0 Z M 1.890625 -17.703125 "/></g></g><g style="fill:#000000;fill-opacity:1;"><g transform="translate(322.073044, 106.498117)"><path style="stroke:none" d="M 12.203125 -5.15625 L 5 -5.15625 L 3.140625 0 L 0.90625 0 L 7.5625 -17.703125 L 9.625 -17.703125 L 16.328125 0 L 14.109375 0 Z M 11.578125 -6.90625 L 8.625 -14.921875 L 8.515625 -14.921875 L 5.640625 -6.90625 Z M 11.578125 -6.90625 "/></g></g><g style="fill:#000000;fill-opacity:1;"><g transform="translate(150.33061, 140.197734)"><path style="stroke:none" d="M 12.34375 -1.96875 L 12.34375 0 L 1.890625 0 L 1.890625 -17.703125 L 4.09375 -17.703125 L 4.0625 -1.96875 Z M 12.34375 -1.96875 "/></g></g><g style="fill:#000000;fill-opacity:1;"><g transform="translate(174.013087, 140.197734)"><path style="stroke:none" d="M 1.96875 -17.703125 L 4.171875 -17.703125 L 4.171875 0 L 1.96875 0 Z M 1.96875 -17.703125 "/></g></g><g style="fill:#000000;fill-opacity:1;"><g transform="translate(190.46695, 140.197734)"><path style="stroke:none" d="M 1.890625 -17.703125 L 4.34375 -17.703125 L 13.828125 -3.484375 L 13.9375 -3.484375 L 13.9375 -17.703125 L 16.078125 -17.703125 L 16.078125 0 L 13.59375 0 L 4.140625 -14 L 4.046875 -14 L 4.046875 0 L 1.890625 0 Z M 1.890625 -17.703125 "/></g></g><g style="fill:#000000;fill-opacity:1;"><g transform="translate(218.74947, 140.197734)"><path style="stroke:none" d="M 1.890625 -17.703125 L 8.375 -17.703125 C 9.957031 -17.703125 11.34375 -17.34375 12.53125 -16.625 C 13.71875 -15.90625 14.632812 -14.882812 15.28125 -13.5625 C 15.925781 -12.238281 16.25 -10.675781 16.25 -8.875 C 16.25 -7.070312 15.925781 -5.5 15.28125 -4.15625 C 14.632812 -2.820312 13.710938 -1.796875 12.515625 -1.078125 C 11.316406 -0.359375 9.925781 0 8.34375 0 L 1.890625 0 Z M 8.046875 -2.015625 C 9.828125 -2.015625 11.253906 -2.597656 12.328125 -3.765625 C 13.410156 -4.941406 13.953125 -6.644531 13.953125 -8.875 C 13.953125 -11.09375 13.414062 -12.785156 12.34375 -13.953125 C 11.28125 -15.128906 9.847656 -15.71875 8.046875 -15.71875 L 4.015625 -15.71875 L 4.015625 -2.015625 Z M 8.046875 -2.015625 "/></g></g><g style="fill:#000000;fill-opacity:1;"><g transform="translate(246.425408, 140.197734)"><path style="stroke:none" d="M 7.734375 0.203125 C 6.367188 0.203125 5.203125 -0.078125 4.234375 -0.640625 C 3.265625 -1.203125 2.535156 -1.929688 2.046875 -2.828125 C 1.554688 -3.722656 1.3125 -4.660156 1.3125 -5.640625 L 1.3125 -5.765625 L 3.71875 -5.765625 L 3.71875 -5.640625 C 3.71875 -5.046875 3.851562 -4.453125 4.125 -3.859375 C 4.40625 -3.273438 4.847656 -2.785156 5.453125 -2.390625 C 6.066406 -1.992188 6.84375 -1.796875 7.78125 -1.796875 C 8.894531 -1.796875 9.8125 -2.082031 10.53125 -2.65625 C 11.257812 -3.226562 11.625 -4.003906 11.625 -4.984375 C 11.625 -5.785156 11.359375 -6.425781 10.828125 -6.90625 C 10.296875 -7.394531 9.617188 -7.722656 8.796875 -7.890625 L 6.21875 -8.375 C 3.25 -9.03125 1.765625 -10.585938 1.765625 -13.046875 C 1.765625 -14.054688 2.007812 -14.941406 2.5 -15.703125 C 2.988281 -16.460938 3.664062 -17.046875 4.53125 -17.453125 C 5.40625 -17.867188 6.414062 -18.078125 7.5625 -18.078125 C 8.851562 -18.078125 9.960938 -17.816406 10.890625 -17.296875 C 11.816406 -16.773438 12.515625 -16.09375 12.984375 -15.25 C 13.460938 -14.414062 13.703125 -13.554688 13.703125 -12.671875 L 13.703125 -12.5625 L 11.296875 -12.5625 L 11.296875 -12.640625 C 11.296875 -13.148438 11.171875 -13.664062 10.921875 -14.1875 C 10.679688 -14.71875 10.28125 -15.175781 9.71875 -15.5625 C 9.15625 -15.957031 8.410156 -16.15625 7.484375 -16.15625 C 6.421875 -16.15625 5.570312 -15.859375 4.9375 -15.265625 C 4.3125 -14.679688 4 -13.953125 4 -13.078125 C 4 -12.328125 4.238281 -11.71875 4.71875 -11.25 C 5.207031 -10.78125 5.875 -10.460938 6.71875 -10.296875 L 9.046875 -9.828125 C 12.304688 -9.171875 13.9375 -7.582031 13.9375 -5.0625 C 13.9375 -4.03125 13.675781 -3.117188 13.15625 -2.328125 C 12.644531 -1.535156 11.914062 -0.914062 10.96875 -0.46875 C 10.03125 -0.0195312 8.953125 0.203125 7.734375 0.203125 Z M 7.734375 0.203125 "/></g></g><g style="fill:#000000;fill-opacity:1;"><g transform="translate(271.87714, 140.197734)"><path style="stroke:none" d="M 12.203125 -5.15625 L 5 -5.15625 L 3.140625 0 L 0.90625 0 L 7.5625 -17.703125 L 9.625 -17.703125 L 16.328125 0 L 14.109375 0 Z M 11.578125 -6.90625 L 8.625 -14.921875 L 8.515625 -14.921875 L 5.640625 -6.90625 Z M 11.578125 -6.90625 "/></g></g><g style="fill:#000000;fill-opacity:1;"><g transform="translate(299.376156, 140.197734)"><path style="stroke:none" d="M 6.625 0.03125 L 6.625 -6.390625 L 0.859375 -17.703125 L 3.234375 -17.703125 L 7.640625 -8.84375 L 7.8125 -8.84375 L 12.1875 -17.703125 L 14.5625 -17.703125 L 8.828125 -6.390625 L 8.828125 0 Z M 6.625 0.03125 "/></g></g></g></svg>