<svg xmlns="http://www.w3.org/2000/svg" xmlns:xlink="http://www.w3.org/1999/xlink" width="512" zoomAndPan="magnify" viewBox="0 0 384 383.999986" height="512" preserveAspectRatio="xMidYMid meet" version="1.2"><defs/><g id="1b28e87af8"><g style="fill:#000000;fill-opacity:1;"><g transform="translate(198.600361, 279.416468)"><path style="stroke:none" d="M 148.84375 21.5 C 143.425781 25.164062 138.046875 28.191406 132.703125 30.578125 C 127.367188 32.960938 121.28125 34.15625 114.4375 34.15625 C 109.175781 34.15625 104.273438 33.316406 99.734375 31.640625 C 95.203125 29.972656 90.785156 27.863281 86.484375 25.3125 C 82.179688 22.769531 77.921875 20.023438 73.703125 17.078125 C 69.484375 14.128906 65.101562 11.378906 60.5625 8.828125 C 56.019531 6.285156 51.117188 4.175781 45.859375 2.5 C 40.609375 0.832031 34.878906 0 28.671875 0 L 7.890625 0 C 11.546875 -0.789062 13.972656 -2.738281 15.171875 -5.84375 C 16.367188 -8.957031 16.96875 -12.109375 16.96875 -15.296875 L 16.96875 -102.734375 C 16.96875 -105.910156 16.328125 -108.894531 15.046875 -111.6875 C 13.773438 -114.476562 11.390625 -116.269531 7.890625 -117.0625 L 39.890625 -117.0625 C 36.546875 -116.269531 34.238281 -114.476562 32.96875 -111.6875 C 31.695312 -108.894531 31.0625 -105.910156 31.0625 -102.734375 L 31.0625 -2.15625 C 39.175781 -1.832031 47.054688 -0.195312 54.703125 2.75 C 62.347656 5.695312 69.875 8.921875 77.28125 12.421875 C 84.6875 15.921875 92.171875 19.066406 99.734375 21.859375 C 107.304688 24.648438 115.070312 26.046875 123.03125 26.046875 C 127.65625 26.046875 131.957031 25.601562 135.9375 24.71875 C 139.914062 23.84375 143.976562 22.375 148.125 20.3125 Z M 148.84375 21.5 "/></g></g><g style="fill:#000000;fill-opacity:1;"><g transform="translate(103.64195, 200.660757)"><path style="stroke:none" d="M 112.046875 -8.125 C 112.046875 -0.15625 110.769531 7.085938 108.21875 13.609375 C 105.675781 20.140625 102.054688 25.710938 97.359375 30.328125 C 92.660156 34.953125 87.046875 38.539062 80.515625 41.09375 C 73.984375 43.644531 66.734375 44.921875 58.765625 44.921875 C 51.597656 44.921875 44.75 43.800781 38.21875 41.5625 C 31.695312 39.332031 25.96875 36.109375 21.03125 31.890625 C 16.09375 27.671875 12.148438 22.535156 9.203125 16.484375 C 6.253906 10.429688 4.78125 3.582031 4.78125 -4.0625 C 4.78125 -11.382812 6.050781 -17.671875 8.59375 -22.921875 C 11.144531 -28.179688 14.609375 -32.523438 18.984375 -35.953125 C 23.367188 -39.378906 28.503906 -41.925781 34.390625 -43.59375 C 40.285156 -45.269531 46.582031 -46.109375 53.28125 -46.109375 L 53.28125 -45.15625 C 47.539062 -44.832031 42.242188 -43.4375 37.390625 -40.96875 C 32.535156 -38.5 28.394531 -35.273438 24.96875 -31.296875 C 21.539062 -27.316406 18.867188 -22.773438 16.953125 -17.671875 C 15.046875 -12.578125 14.09375 -7.164062 14.09375 -1.4375 C 14.09375 5.09375 15.164062 11.023438 17.3125 16.359375 C 19.46875 21.703125 22.457031 26.28125 26.28125 30.09375 C 30.101562 33.914062 34.722656 36.863281 40.140625 38.9375 C 45.554688 41.007812 51.523438 42.046875 58.046875 42.046875 C 70.953125 42.046875 81.023438 38.257812 88.265625 30.6875 C 95.515625 23.125 99.140625 12.894531 99.140625 0 C 99.140625 -6.84375 97.585938 -13.09375 94.484375 -18.75 C 91.378906 -24.40625 87.476562 -29.738281 82.78125 -34.75 C 78.082031 -39.769531 72.984375 -44.585938 67.484375 -49.203125 C 61.992188 -53.828125 56.898438 -58.445312 52.203125 -63.0625 C 47.503906 -67.6875 43.597656 -72.46875 40.484375 -77.40625 C 37.378906 -82.34375 35.828125 -87.675781 35.828125 -93.40625 C 35.828125 -97.550781 36.582031 -101.296875 38.09375 -104.640625 C 39.613281 -107.984375 41.6875 -110.769531 44.3125 -113 C 46.945312 -115.226562 50.015625 -116.941406 53.515625 -118.140625 C 57.015625 -119.335938 60.757812 -119.9375 64.75 -119.9375 C 66.332031 -119.9375 67.878906 -119.773438 69.390625 -119.453125 C 70.910156 -119.128906 72.390625 -118.8125 73.828125 -118.5 L 79.796875 -116.59375 C 82.984375 -115.632812 86.007812 -115.15625 88.875 -115.15625 C 91.101562 -115.15625 92.851562 -116.03125 94.125 -117.78125 L 92.453125 -90.0625 C 91.816406 -93.25 90.703125 -96.515625 89.109375 -99.859375 C 87.515625 -103.203125 85.484375 -106.226562 83.015625 -108.9375 C 80.546875 -111.644531 77.757812 -113.914062 74.65625 -115.75 C 71.550781 -117.582031 68.164062 -118.5 64.5 -118.5 C 58.613281 -118.5 53.554688 -116.90625 49.328125 -113.71875 C 45.109375 -110.53125 43 -105.753906 43 -99.390625 C 43 -94.453125 44.710938 -89.710938 48.140625 -85.171875 C 51.566406 -80.628906 55.828125 -76.164062 60.921875 -71.78125 C 66.015625 -67.40625 71.546875 -62.945312 77.515625 -58.40625 C 83.492188 -53.875 89.03125 -49.054688 94.125 -43.953125 C 99.226562 -38.859375 103.488281 -33.363281 106.90625 -27.46875 C 110.332031 -21.582031 112.046875 -15.132812 112.046875 -8.125 Z M 112.046875 -8.125 "/></g></g></g></svg>