<svg xmlns="http://www.w3.org/2000/svg" xmlns:xlink="http://www.w3.org/1999/xlink" width="512" zoomAndPan="magnify" viewBox="0 0 384 383.999986" height="512" preserveAspectRatio="xMidYMid meet" version="1.2"><defs/><g id="b444a5e16c"><rect x="0" width="384" y="0" height="383.999986" style="fill:#ffffff;fill-opacity:1;stroke:none;"/><rect x="0" width="384" y="0" height="383.999986" style="fill:#eeeeee;fill-opacity:1;stroke:none;"/><g style="fill:#000000;fill-opacity:1;"><g transform="translate(188.064112, 252.395266)"><path style="stroke:none" d="M 111.296875 16.078125 C 107.253906 18.816406 103.238281 21.078125 99.25 22.859375 C 95.257812 24.648438 90.703125 25.546875 85.578125 25.546875 C 81.648438 25.546875 77.988281 24.921875 74.59375 23.671875 C 71.195312 22.421875 67.890625 20.84375 64.671875 18.9375 C 61.453125 17.03125 58.265625 14.972656 55.109375 12.765625 C 51.953125 10.566406 48.675781 8.515625 45.28125 6.609375 C 41.894531 4.703125 38.234375 3.125 34.296875 1.875 C 30.367188 0.625 26.082031 0 21.4375 0 L 5.890625 0 C 8.628906 -0.59375 10.445312 -2.050781 11.34375 -4.375 C 12.238281 -6.695312 12.6875 -9.050781 12.6875 -11.4375 L 12.6875 -76.828125 C 12.6875 -79.203125 12.207031 -81.429688 11.25 -83.515625 C 10.300781 -85.597656 8.515625 -86.941406 5.890625 -87.546875 L 29.828125 -87.546875 C 27.328125 -86.941406 25.597656 -85.597656 24.640625 -83.515625 C 23.691406 -81.429688 23.21875 -79.203125 23.21875 -76.828125 L 23.21875 -1.609375 C 29.300781 -1.367188 35.195312 -0.148438 40.90625 2.046875 C 46.625 4.253906 52.253906 6.664062 57.796875 9.28125 C 63.335938 11.90625 68.9375 14.257812 74.59375 16.34375 C 80.25 18.425781 86.054688 19.46875 92.015625 19.46875 C 95.460938 19.46875 98.675781 19.140625 101.65625 18.484375 C 104.632812 17.835938 107.671875 16.738281 110.765625 15.1875 Z M 111.296875 16.078125 "/></g></g><g style="fill:#000000;fill-opacity:1;"><g transform="translate(117.05208, 193.499952)"><path style="stroke:none" d="M 83.796875 -6.078125 C 83.796875 -0.117188 82.84375 5.300781 80.9375 10.1875 C 79.03125 15.070312 76.316406 19.238281 72.796875 22.6875 C 69.285156 26.144531 65.085938 28.828125 60.203125 30.734375 C 55.316406 32.640625 49.898438 33.59375 43.953125 33.59375 C 38.585938 33.59375 33.460938 32.753906 28.578125 31.078125 C 23.703125 29.410156 19.414062 27 15.71875 23.84375 C 12.03125 20.6875 9.082031 16.84375 6.875 12.3125 C 4.675781 7.789062 3.578125 2.675781 3.578125 -3.03125 C 3.578125 -8.507812 4.53125 -13.210938 6.4375 -17.140625 C 8.34375 -21.078125 10.929688 -24.328125 14.203125 -26.890625 C 17.472656 -29.453125 21.3125 -31.359375 25.71875 -32.609375 C 30.132812 -33.859375 34.84375 -34.484375 39.84375 -34.484375 L 39.84375 -33.765625 C 35.550781 -33.523438 31.585938 -32.484375 27.953125 -30.640625 C 24.328125 -28.796875 21.234375 -26.382812 18.671875 -23.40625 C 16.109375 -20.425781 14.113281 -17.03125 12.6875 -13.21875 C 11.257812 -9.40625 10.546875 -5.359375 10.546875 -1.078125 C 10.546875 3.804688 11.347656 8.242188 12.953125 12.234375 C 14.554688 16.222656 16.785156 19.644531 19.640625 22.5 C 22.503906 25.363281 25.960938 27.566406 30.015625 29.109375 C 34.066406 30.660156 38.53125 31.4375 43.40625 31.4375 C 53.0625 31.4375 60.597656 28.609375 66.015625 22.953125 C 71.429688 17.296875 74.140625 9.644531 74.140625 0 C 74.140625 -5.125 72.976562 -9.796875 70.65625 -14.015625 C 68.332031 -18.242188 65.414062 -22.234375 61.90625 -25.984375 C 58.394531 -29.742188 54.582031 -33.347656 50.46875 -36.796875 C 46.363281 -40.253906 42.550781 -43.707031 39.03125 -47.15625 C 35.519531 -50.613281 32.601562 -54.1875 30.28125 -57.875 C 27.957031 -61.570312 26.796875 -65.566406 26.796875 -69.859375 C 26.796875 -72.953125 27.359375 -75.75 28.484375 -78.25 C 29.617188 -80.75 31.171875 -82.832031 33.140625 -84.5 C 35.109375 -86.164062 37.398438 -87.445312 40.015625 -88.34375 C 42.640625 -89.238281 45.441406 -89.6875 48.421875 -89.6875 C 49.609375 -89.6875 50.765625 -89.566406 51.890625 -89.328125 C 53.023438 -89.085938 54.128906 -88.847656 55.203125 -88.609375 L 59.671875 -87.1875 C 62.054688 -86.46875 64.316406 -86.109375 66.453125 -86.109375 C 68.128906 -86.109375 69.441406 -86.765625 70.390625 -88.078125 L 69.140625 -67.359375 C 68.660156 -69.734375 67.828125 -72.171875 66.640625 -74.671875 C 65.453125 -77.179688 63.929688 -79.445312 62.078125 -81.46875 C 60.234375 -83.488281 58.148438 -85.179688 55.828125 -86.546875 C 53.503906 -87.921875 50.972656 -88.609375 48.234375 -88.609375 C 43.828125 -88.609375 40.046875 -87.414062 36.890625 -85.03125 C 33.734375 -82.65625 32.15625 -79.085938 32.15625 -74.328125 C 32.15625 -70.628906 33.4375 -67.082031 36 -63.6875 C 38.5625 -60.289062 41.75 -56.953125 45.5625 -53.671875 C 49.375 -50.398438 53.507812 -47.066406 57.96875 -43.671875 C 62.4375 -40.285156 66.578125 -36.6875 70.390625 -32.875 C 74.203125 -29.0625 77.390625 -24.953125 79.953125 -20.546875 C 82.515625 -16.140625 83.796875 -11.316406 83.796875 -6.078125 Z M 83.796875 -6.078125 "/></g></g><g style="fill:#000000;fill-opacity:1;"><g transform="translate(191.999992, 116.741357)"><path style="stroke:none" d="M 4.3125 0.109375 C 3.550781 0.109375 2.898438 -0.046875 2.359375 -0.359375 C 1.816406 -0.671875 1.410156 -1.078125 1.140625 -1.578125 C 0.867188 -2.078125 0.734375 -2.597656 0.734375 -3.140625 L 0.734375 -3.203125 L 2.0625 -3.203125 L 2.0625 -3.140625 C 2.0625 -2.804688 2.140625 -2.472656 2.296875 -2.140625 C 2.453125 -1.816406 2.695312 -1.546875 3.03125 -1.328125 C 3.375 -1.109375 3.8125 -1 4.34375 -1 C 4.957031 -1 5.460938 -1.15625 5.859375 -1.46875 C 6.265625 -1.789062 6.46875 -2.222656 6.46875 -2.765625 C 6.46875 -3.222656 6.320312 -3.582031 6.03125 -3.84375 C 5.738281 -4.113281 5.363281 -4.296875 4.90625 -4.390625 L 3.46875 -4.65625 C 1.8125 -5.019531 0.984375 -5.890625 0.984375 -7.265625 C 0.984375 -7.828125 1.117188 -8.316406 1.390625 -8.734375 C 1.660156 -9.160156 2.035156 -9.488281 2.515625 -9.71875 C 3.003906 -9.945312 3.566406 -10.0625 4.203125 -10.0625 C 4.929688 -10.0625 5.550781 -9.914062 6.0625 -9.625 C 6.582031 -9.332031 6.972656 -8.953125 7.234375 -8.484375 C 7.492188 -8.023438 7.625 -7.546875 7.625 -7.046875 L 7.625 -7 L 6.296875 -7 L 6.296875 -7.046875 C 6.296875 -7.328125 6.226562 -7.613281 6.09375 -7.90625 C 5.957031 -8.195312 5.726562 -8.453125 5.40625 -8.671875 C 5.09375 -8.890625 4.679688 -9 4.171875 -9 C 3.578125 -9 3.101562 -8.832031 2.75 -8.5 C 2.394531 -8.175781 2.21875 -7.769531 2.21875 -7.28125 C 2.21875 -6.863281 2.351562 -6.523438 2.625 -6.265625 C 2.90625 -6.003906 3.28125 -5.828125 3.75 -5.734375 L 5.046875 -5.46875 C 6.847656 -5.101562 7.75 -4.21875 7.75 -2.8125 C 7.75 -2.238281 7.601562 -1.734375 7.3125 -1.296875 C 7.03125 -0.859375 6.628906 -0.515625 6.109375 -0.265625 C 5.585938 -0.015625 4.988281 0.109375 4.3125 0.109375 Z M 4.3125 0.109375 "/></g></g><g style="fill:#000000;fill-opacity:1;"><g transform="translate(206.179376, 116.741357)"><path style="stroke:none" d="M 6.796875 -2.875 L 2.78125 -2.875 L 1.75 0 L 0.5 0 L 4.203125 -9.859375 L 5.359375 -9.859375 L 9.09375 0 L 7.859375 0 Z M 6.453125 -3.84375 L 4.796875 -8.3125 L 4.75 -8.3125 L 3.140625 -3.84375 Z M 6.453125 -3.84375 "/></g></g><g style="fill:#000000;fill-opacity:1;"><g transform="translate(221.499319, 116.741357)"><path style="stroke:none" d="M 1.0625 -9.859375 L 4.65625 -9.859375 C 5.539062 -9.859375 6.3125 -9.65625 6.96875 -9.25 C 7.632812 -8.851562 8.144531 -8.285156 8.5 -7.546875 C 8.863281 -6.816406 9.046875 -5.945312 9.046875 -4.9375 C 9.046875 -3.9375 8.863281 -3.0625 8.5 -2.3125 C 8.144531 -1.570312 7.632812 -1 6.96875 -0.59375 C 6.300781 -0.195312 5.523438 0 4.640625 0 L 1.0625 0 Z M 4.484375 -1.125 C 5.472656 -1.125 6.265625 -1.445312 6.859375 -2.09375 C 7.460938 -2.75 7.765625 -3.695312 7.765625 -4.9375 C 7.765625 -6.175781 7.46875 -7.117188 6.875 -7.765625 C 6.28125 -8.421875 5.484375 -8.75 4.484375 -8.75 L 2.234375 -8.75 L 2.234375 -1.125 Z M 4.484375 -1.125 "/></g></g><g style="fill:#000000;fill-opacity:1;"><g transform="translate(236.917828, 116.741357)"><path style="stroke:none" d="M 4.03125 -3.921875 L 2.265625 -3.921875 L 2.265625 0 L 1.0625 0 L 1.0625 -9.859375 L 4.40625 -9.859375 C 5.207031 -9.859375 5.863281 -9.710938 6.375 -9.421875 C 6.882812 -9.128906 7.25 -8.753906 7.46875 -8.296875 C 7.695312 -7.847656 7.8125 -7.378906 7.8125 -6.890625 C 7.8125 -6.203125 7.609375 -5.582031 7.203125 -5.03125 C 6.796875 -4.488281 6.160156 -4.144531 5.296875 -4 L 7.890625 0 L 6.5625 0 Z M 2.265625 -4.96875 L 4.25 -4.96875 C 4.914062 -4.96875 5.476562 -5.113281 5.9375 -5.40625 C 6.394531 -5.695312 6.625 -6.191406 6.625 -6.890625 C 6.625 -7.566406 6.394531 -8.046875 5.9375 -8.328125 C 5.476562 -8.609375 4.914062 -8.75 4.25 -8.75 L 2.265625 -8.75 Z M 2.265625 -4.96875 "/></g></g><g style="fill:#000000;fill-opacity:1;"><g transform="translate(251.181703, 116.741357)"><path style="stroke:none" d="M 6.796875 -2.875 L 2.78125 -2.875 L 1.75 0 L 0.5 0 L 4.203125 -9.859375 L 5.359375 -9.859375 L 9.09375 0 L 7.859375 0 Z M 6.453125 -3.84375 L 4.796875 -8.3125 L 4.75 -8.3125 L 3.140625 -3.84375 Z M 6.453125 -3.84375 "/></g></g><g style="fill:#000000;fill-opacity:1;"><g transform="translate(191.999992, 135.51571)"><path style="stroke:none" d="M 1.0625 -9.859375 L 2.84375 -9.859375 L 5.765625 -2.3125 L 5.8125 -2.3125 L 8.75 -9.859375 L 10.53125 -9.859375 L 10.53125 0 L 9.328125 0 L 9.328125 -7.984375 L 9.28125 -7.984375 L 6.21875 0 L 5.34375 0 L 2.3125 -7.984375 L 2.25 -7.984375 L 2.25 0 L 1.0625 0 Z M 1.0625 -9.859375 "/></g></g><g style="fill:#000000;fill-opacity:1;"><g transform="translate(209.333489, 135.51571)"><path style="stroke:none" d="M 6.796875 -2.875 L 2.78125 -2.875 L 1.75 0 L 0.5 0 L 4.203125 -9.859375 L 5.359375 -9.859375 L 9.09375 0 L 7.859375 0 Z M 6.453125 -3.84375 L 4.796875 -8.3125 L 4.75 -8.3125 L 3.140625 -3.84375 Z M 6.453125 -3.84375 "/></g></g><g style="fill:#000000;fill-opacity:1;"><g transform="translate(224.653433, 135.51571)"><path style="stroke:none" d="M 1.0625 -9.859375 L 4.65625 -9.859375 C 5.539062 -9.859375 6.3125 -9.65625 6.96875 -9.25 C 7.632812 -8.851562 8.144531 -8.285156 8.5 -7.546875 C 8.863281 -6.816406 9.046875 -5.945312 9.046875 -4.9375 C 9.046875 -3.9375 8.863281 -3.0625 8.5 -2.3125 C 8.144531 -1.570312 7.632812 -1 6.96875 -0.59375 C 6.300781 -0.195312 5.523438 0 4.640625 0 L 1.0625 0 Z M 4.484375 -1.125 C 5.472656 -1.125 6.265625 -1.445312 6.859375 -2.09375 C 7.460938 -2.75 7.765625 -3.695312 7.765625 -4.9375 C 7.765625 -6.175781 7.46875 -7.117188 6.875 -7.765625 C 6.28125 -8.421875 5.484375 -8.75 4.484375 -8.75 L 2.234375 -8.75 L 2.234375 -1.125 Z M 4.484375 -1.125 "/></g></g><g style="fill:#000000;fill-opacity:1;"><g transform="translate(240.071941, 135.51571)"><path style="stroke:none" d="M 5.1875 0.09375 C 4.238281 0.09375 3.429688 -0.117188 2.765625 -0.546875 C 2.097656 -0.984375 1.585938 -1.582031 1.234375 -2.34375 C 0.890625 -3.113281 0.71875 -3.988281 0.71875 -4.96875 C 0.71875 -5.945312 0.894531 -6.820312 1.25 -7.59375 C 1.601562 -8.363281 2.113281 -8.96875 2.78125 -9.40625 C 3.445312 -9.84375 4.25 -10.0625 5.1875 -10.0625 C 6.101562 -10.0625 6.894531 -9.84375 7.5625 -9.40625 C 8.226562 -8.96875 8.734375 -8.363281 9.078125 -7.59375 C 9.421875 -6.832031 9.59375 -5.953125 9.59375 -4.953125 C 9.59375 -3.972656 9.421875 -3.101562 9.078125 -2.34375 C 8.734375 -1.582031 8.226562 -0.984375 7.5625 -0.546875 C 6.894531 -0.117188 6.101562 0.09375 5.1875 0.09375 Z M 5.171875 -1.03125 C 5.816406 -1.03125 6.378906 -1.195312 6.859375 -1.53125 C 7.335938 -1.863281 7.703125 -2.328125 7.953125 -2.921875 C 8.203125 -3.523438 8.328125 -4.210938 8.328125 -4.984375 C 8.328125 -5.753906 8.203125 -6.4375 7.953125 -7.03125 C 7.703125 -7.632812 7.335938 -8.101562 6.859375 -8.4375 C 6.378906 -8.78125 5.816406 -8.953125 5.171875 -8.953125 C 4.515625 -8.953125 3.945312 -8.78125 3.46875 -8.4375 C 3 -8.09375 2.632812 -7.617188 2.375 -7.015625 C 2.125 -6.421875 2 -5.742188 2 -4.984375 C 2 -4.210938 2.125 -3.53125 2.375 -2.9375 C 2.632812 -2.34375 3 -1.875 3.46875 -1.53125 C 3.945312 -1.195312 4.515625 -1.03125 5.171875 -1.03125 Z M 5.171875 -1.03125 "/></g></g><g style="fill:#000000;fill-opacity:1;"><g transform="translate(256.166331, 135.51571)"><path style="stroke:none" d="M 1.0625 -9.859375 L 2.421875 -9.859375 L 7.703125 -1.9375 L 7.75 -1.9375 L 7.75 -9.859375 L 8.953125 -9.859375 L 8.953125 0 L 7.578125 0 L 2.3125 -7.796875 L 2.25 -7.796875 L 2.25 0 L 1.0625 0 Z M 1.0625 -9.859375 "/></g></g><g style="fill:#000000;fill-opacity:1;"><g transform="translate(271.922772, 135.51571)"><path style="stroke:none" d="M 1.0625 -9.859375 L 2.421875 -9.859375 L 7.703125 -1.9375 L 7.75 -1.9375 L 7.75 -9.859375 L 8.953125 -9.859375 L 8.953125 0 L 7.578125 0 L 2.3125 -7.796875 L 2.25 -7.796875 L 2.25 0 L 1.0625 0 Z M 1.0625 -9.859375 "/></g></g><g style="fill:#000000;fill-opacity:1;"><g transform="translate(287.679212, 135.51571)"><path style="stroke:none" d="M 6.796875 -2.875 L 2.78125 -2.875 L 1.75 0 L 0.5 0 L 4.203125 -9.859375 L 5.359375 -9.859375 L 9.09375 0 L 7.859375 0 Z M 6.453125 -3.84375 L 4.796875 -8.3125 L 4.75 -8.3125 L 3.140625 -3.84375 Z M 6.453125 -3.84375 "/></g></g><g style="fill:#000000;fill-opacity:1;"><g transform="translate(191.999992, 154.290064)"><path style="stroke:none" d="M 6.875 -1.09375 L 6.875 0 L 1.0625 0 L 1.0625 -9.859375 L 2.28125 -9.859375 L 2.265625 -1.09375 Z M 6.875 -1.09375 "/></g></g><g style="fill:#000000;fill-opacity:1;"><g transform="translate(205.193708, 154.290064)"><path style="stroke:none" d="M 1.09375 -9.859375 L 2.328125 -9.859375 L 2.328125 0 L 1.09375 0 Z M 1.09375 -9.859375 "/></g></g><g style="fill:#000000;fill-opacity:1;"><g transform="translate(214.3603, 154.290064)"><path style="stroke:none" d="M 1.0625 -9.859375 L 2.421875 -9.859375 L 7.703125 -1.9375 L 7.75 -1.9375 L 7.75 -9.859375 L 8.953125 -9.859375 L 8.953125 0 L 7.578125 0 L 2.3125 -7.796875 L 2.25 -7.796875 L 2.25 0 L 1.0625 0 Z M 1.0625 -9.859375 "/></g></g><g style="fill:#000000;fill-opacity:1;"><g transform="translate(230.116741, 154.290064)"><path style="stroke:none" d="M 1.0625 -9.859375 L 4.65625 -9.859375 C 5.539062 -9.859375 6.3125 -9.65625 6.96875 -9.25 C 7.632812 -8.851562 8.144531 -8.285156 8.5 -7.546875 C 8.863281 -6.816406 9.046875 -5.945312 9.046875 -4.9375 C 9.046875 -3.9375 8.863281 -3.0625 8.5 -2.3125 C 8.144531 -1.570312 7.632812 -1 6.96875 -0.59375 C 6.300781 -0.195312 5.523438 0 4.640625 0 L 1.0625 0 Z M 4.484375 -1.125 C 5.472656 -1.125 6.265625 -1.445312 6.859375 -2.09375 C 7.460938 -2.75 7.765625 -3.695312 7.765625 -4.9375 C 7.765625 -6.175781 7.46875 -7.117188 6.875 -7.765625 C 6.28125 -8.421875 5.484375 -8.75 4.484375 -8.75 L 2.234375 -8.75 L 2.234375 -1.125 Z M 4.484375 -1.125 "/></g></g><g style="fill:#000000;fill-opacity:1;"><g transform="translate(245.535249, 154.290064)"><path style="stroke:none" d="M 4.3125 0.109375 C 3.550781 0.109375 2.898438 -0.046875 2.359375 -0.359375 C 1.816406 -0.671875 1.410156 -1.078125 1.140625 -1.578125 C 0.867188 -2.078125 0.734375 -2.597656 0.734375 -3.140625 L 0.734375 -3.203125 L 2.0625 -3.203125 L 2.0625 -3.140625 C 2.0625 -2.804688 2.140625 -2.472656 2.296875 -2.140625 C 2.453125 -1.816406 2.695312 -1.546875 3.03125 -1.328125 C 3.375 -1.109375 3.8125 -1 4.34375 -1 C 4.957031 -1 5.460938 -1.15625 5.859375 -1.46875 C 6.265625 -1.789062 6.46875 -2.222656 6.46875 -2.765625 C 6.46875 -3.222656 6.320312 -3.582031 6.03125 -3.84375 C 5.738281 -4.113281 5.363281 -4.296875 4.90625 -4.390625 L 3.46875 -4.65625 C 1.8125 -5.019531 0.984375 -5.890625 0.984375 -7.265625 C 0.984375 -7.828125 1.117188 -8.316406 1.390625 -8.734375 C 1.660156 -9.160156 2.035156 -9.488281 2.515625 -9.71875 C 3.003906 -9.945312 3.566406 -10.0625 4.203125 -10.0625 C 4.929688 -10.0625 5.550781 -9.914062 6.0625 -9.625 C 6.582031 -9.332031 6.972656 -8.953125 7.234375 -8.484375 C 7.492188 -8.023438 7.625 -7.546875 7.625 -7.046875 L 7.625 -7 L 6.296875 -7 L 6.296875 -7.046875 C 6.296875 -7.328125 6.226562 -7.613281 6.09375 -7.90625 C 5.957031 -8.195312 5.726562 -8.453125 5.40625 -8.671875 C 5.09375 -8.890625 4.679688 -9 4.171875 -9 C 3.578125 -9 3.101562 -8.832031 2.75 -8.5 C 2.394531 -8.175781 2.21875 -7.769531 2.21875 -7.28125 C 2.21875 -6.863281 2.351562 -6.523438 2.625 -6.265625 C 2.90625 -6.003906 3.28125 -5.828125 3.75 -5.734375 L 5.046875 -5.46875 C 6.847656 -5.101562 7.75 -4.21875 7.75 -2.8125 C 7.75 -2.238281 7.601562 -1.734375 7.3125 -1.296875 C 7.03125 -0.859375 6.628906 -0.515625 6.109375 -0.265625 C 5.585938 -0.015625 4.988281 0.109375 4.3125 0.109375 Z M 4.3125 0.109375 "/></g></g><g style="fill:#000000;fill-opacity:1;"><g transform="translate(259.714633, 154.290064)"><path style="stroke:none" d="M 6.796875 -2.875 L 2.78125 -2.875 L 1.75 0 L 0.5 0 L 4.203125 -9.859375 L 5.359375 -9.859375 L 9.09375 0 L 7.859375 0 Z M 6.453125 -3.84375 L 4.796875 -8.3125 L 4.75 -8.3125 L 3.140625 -3.84375 Z M 6.453125 -3.84375 "/></g></g><g style="fill:#000000;fill-opacity:1;"><g transform="translate(275.034576, 154.290064)"><path style="stroke:none" d="M 3.6875 0.015625 L 3.6875 -3.5625 L 0.484375 -9.859375 L 1.796875 -9.859375 L 4.25 -4.921875 L 4.34375 -4.921875 L 6.78125 -9.859375 L 8.109375 -9.859375 L 4.90625 -3.5625 L 4.90625 0 Z M 3.6875 0.015625 "/></g></g></g></svg>